<?xml version="1.0" encoding="UTF-8"?>
<svg width="74px" height="28px" viewBox="0 0 74 28" version="1.1" xmlns="http://www.w3.org/2000/svg" xmlns:xlink="http://www.w3.org/1999/xlink">
    <!-- Generator: Sketch 47 (45396) - http://www.bohemiancoding.com/sketch -->
    <title>Logo</title>
    <desc>Created with Sketch.</desc>
    <defs></defs>
    <g id="Symbols" stroke="none" stroke-width="1" fill="none" fill-rule="evenodd">
        <g id="Logo" fill="#222222">
            <path d="M7.39283108,12.279424 C6.8357723,11.5994846 6.14765118,11.25952 5.32844708,11.25952 C4.96799728,11.25952 4.63417662,11.3250553 4.32697508,11.456128 C4.01977355,11.5872007 3.75558419,11.7653749 3.53439908,11.990656 C3.31321398,12.2159371 3.13913572,12.4842224 3.01215908,12.79552 C2.88518245,13.1068176 2.82169508,13.4426862 2.82169508,13.803136 C2.82169508,14.1717778 2.88518245,14.5117424 3.01215908,14.82304 C3.13913572,15.1343376 3.31526196,15.4046709 3.54054308,15.634048 C3.76582421,15.8634251 4.03001357,16.0436473 4.33311908,16.17472 C4.6362246,16.3057927 4.96390132,16.371328 5.31615908,16.371328 C6.08621093,16.371328 6.77842801,16.0436513 7.39283108,15.388288 L7.39283108,18.239104 L7.14707108,18.32512 C6.77842924,18.4561927 6.43436868,18.5524477 6.11487908,18.613888 C5.79538949,18.6753283 5.48000064,18.706048 5.16870308,18.706048 C4.52972389,18.706048 3.91737801,18.5852172 3.33164708,18.343552 C2.74591616,18.1018868 2.22982532,17.7619222 1.78335908,17.323648 C1.33689285,16.8853738 0.978496436,16.365187 0.708159084,15.763072 C0.437821733,15.160957 0.302655084,14.5035556 0.302655084,13.790848 C0.302655084,13.0781404 0.435773753,12.424835 0.702015084,11.830912 C0.968256416,11.236989 1.32460485,10.7249942 1.77107108,10.294912 C2.21753732,9.86482985 2.73567614,9.52896121 3.32550308,9.287296 C3.91533003,9.04563079 4.53381985,8.9248 5.18099108,8.9248 C5.54963293,8.9248 5.9121253,8.96371161 6.26847908,9.041536 C6.62483287,9.11936039 6.99961312,9.24019118 7.39283108,9.404032 L7.39283108,12.279424 Z M21.8558074,15.00736 L20.7744634,11.923072 L19.6931194,15.00736 L21.8558074,15.00736 Z M22.4947834,16.838272 L19.0541434,16.838272 L18.5011834,18.448 L15.9329914,18.448 L19.4596474,9.182848 L22.0892794,9.182848 L25.6159354,18.448 L23.0477434,18.448 L22.4947834,16.838272 Z M39.4399357,11.554432 C39.1777904,11.3414389 38.915649,11.1837445 38.6535037,11.081344 C38.3913584,10.9789435 38.1374089,10.927744 37.8916477,10.927744 C37.5803501,10.927744 37.3264007,11.0014713 37.1297917,11.148928 C36.9331827,11.2963847 36.8348797,11.4888948 36.8348797,11.726464 C36.8348797,11.8903048 36.8840312,12.0254715 36.9823357,12.131968 C37.0806402,12.2384645 37.2096629,12.3306236 37.3694077,12.408448 C37.5291525,12.4862724 37.7093747,12.5538557 37.9100797,12.6112 C38.1107847,12.6685443 38.3094387,12.7299837 38.5060477,12.79552 C39.2924836,13.0576653 39.8679659,13.4078698 40.2325117,13.846144 C40.5970575,14.2844182 40.7793277,14.8558045 40.7793277,15.56032 C40.7793277,16.0354584 40.6994565,16.4655341 40.5397117,16.85056 C40.3799669,17.2355859 40.1464972,17.5653106 39.8392957,17.839744 C39.5320942,18.1141774 39.1552659,18.3271672 38.7087997,18.47872 C38.2623335,18.6302728 37.7564825,18.706048 37.1912317,18.706048 C36.0197698,18.706048 34.9343407,18.3578915 33.9349117,17.661568 L34.9671037,15.720064 C35.3275535,16.0395536 35.6839019,16.2771192 36.0361597,16.432768 C36.3884175,16.5884168 36.736574,16.66624 37.0806397,16.66624 C37.4738577,16.66624 37.7667187,16.5761289 37.9592317,16.395904 C38.1517447,16.2156791 38.2479997,16.0108811 38.2479997,15.781504 C38.2479997,15.6422393 38.2234239,15.5214085 38.1742717,15.419008 C38.1251194,15.3166075 38.0432003,15.2224004 37.9285117,15.136384 C37.8138231,15.0503676 37.6643206,14.9704964 37.4799997,14.896768 C37.2956788,14.8230396 37.072449,14.7411205 36.8103037,14.651008 C36.4990061,14.5527035 36.1938572,14.4441606 35.8948477,14.325376 C35.5958382,14.2065914 35.3296009,14.048897 35.0961277,13.852288 C34.8626545,13.655679 34.6742404,13.4078735 34.5308797,13.108864 C34.387519,12.8098545 34.3158397,12.4309783 34.3158397,11.972224 C34.3158397,11.5134697 34.3916149,11.0977299 34.5431677,10.724992 C34.6947205,10.3522541 34.9077103,10.0327693 35.1821437,9.766528 C35.4565771,9.50028667 35.7924457,9.29344074 36.1897597,9.145984 C36.5870737,8.99852726 37.0314852,8.9248 37.5230077,8.9248 C37.981762,8.9248 38.4609892,8.98828737 38.9607037,9.115264 C39.4604182,9.24224063 39.9396454,9.42860677 40.3983997,9.674368 L39.4399357,11.554432 Z" id="Cas"></path>
            <polygon id="L" points="71.0192 9.182848 71.0192 16.408192 73.90688 16.408192 73.90688 18.448 68.610752 18.448 68.610752 9.182848"></polygon>
            <path d="M53.3552,0.734848 L53.3552,5.772928 C53.3552,6.04326535 53.3654399,6.31974259 53.38592,6.602368 C53.4064001,6.88499341 53.4678395,7.14099085 53.57024,7.370368 C53.6726405,7.59974515 53.8344309,7.78611128 54.055616,7.929472 C54.2768011,8.07283272 54.588094,8.144512 54.989504,8.144512 C55.390914,8.144512 55.7001589,8.07283272 55.917248,7.929472 C56.1343371,7.78611128 56.2961275,7.59974515 56.402624,7.370368 C56.5091205,7.14099085 56.5726079,6.88499341 56.593088,6.602368 C56.6135681,6.31974259 56.623808,6.04326535 56.623808,5.772928 L56.623808,0.734848 L59.019968,0.734848 L59.019968,6.104704 C59.019968,7.54650321 58.6902433,8.59916468 58.030784,9.26272 C57.3713247,9.92627532 56.3575748,10.258048 54.989504,10.258048 C53.6214332,10.258048 52.6056353,9.92627532 51.94208,9.26272 C51.2785247,8.59916468 50.946752,7.54650321 50.946752,6.104704 L50.946752,0.734848 L53.3552,0.734848 Z" id="U"></path>
            <path d="M55.984832,24.22336 L54.903488,21.139072 L53.822144,24.22336 L55.984832,24.22336 Z M56.623808,26.054272 L53.183168,26.054272 L52.630208,27.664 L50.062016,27.664 L53.588672,18.398848 L56.218304,18.398848 L59.74496,27.664 L57.176768,27.664 L56.623808,26.054272 Z" id="A"></path>
        </g>
    </g>
</svg>