<?xml version="1.0" encoding="UTF-8"?>
<svg width="106px" height="37px" viewBox="0 0 106 37" version="1.1" xmlns="http://www.w3.org/2000/svg" xmlns:xlink="http://www.w3.org/1999/xlink">
    <!-- Generator: Sketch 48.1 (47250) - http://www.bohemiancoding.com/sketch -->
    <title>logo</title>
    <desc>Created with Sketch.</desc>
    <defs></defs>
    <g id="Logi-32" stroke="none" stroke-width="1" fill="none" fill-rule="evenodd" transform="translate(-20.000000, -19.000000)">
        <g id="logo" transform="translate(20.000000, 19.000000)" fill="#EEEEEE">
            <path d="M20.312374,18.4 L22.7028415,20.7904675 L20.7904675,22.7028415 L18.4,20.312374 L16.0095325,22.7028415 L14.0971585,20.7904675 L16.487626,18.4 L14.0971585,16.0095325 L16.0095325,14.0971585 L18.4,16.487626 L20.7904675,14.0971585 L22.7028415,16.0095325 L20.312374,18.4 Z M22.224748,12.662878 L24.6153889,10.2722371 C25.144275,9.74335096 25.1433806,8.88820161 24.6153889,8.36020986 L19.3560136,3.10083465 C18.8271275,2.57194846 17.9719781,2.57284289 17.4439864,3.10083465 L12.1846111,8.36020986 C11.655725,8.88909604 11.6566194,9.74424539 12.1846111,10.2722371 L14.575252,12.662878 L12.662878,14.575252 L10.2722371,12.1846111 C9.74335096,11.655725 8.88820161,11.6566194 8.36020986,12.1846111 L3.10083465,17.4439864 C2.57194846,17.9728725 2.57284289,18.8280219 3.10083465,19.3560136 L8.36020986,24.6153889 C8.88909604,25.144275 9.74424539,25.1433806 10.2722371,24.6153889 L12.662878,22.224748 L14.575252,24.137122 L12.1846111,26.5277629 C11.655725,27.056649 11.6566194,27.9117984 12.1846111,28.4397901 L17.4439864,33.6991654 C17.9728725,34.2280515 18.8280219,34.2271571 19.3560136,33.6991654 L24.6153889,28.4397901 C25.144275,27.910904 25.1433806,27.0557546 24.6153889,26.5277629 L22.224748,24.137122 L24.137122,22.224748 L26.5277629,24.6153889 C27.056649,25.144275 27.9117984,25.1433806 28.4397901,24.6153889 L33.6991654,19.3560136 C34.2280515,18.8271275 34.2271571,17.9719781 33.6991654,17.4439864 L28.4397901,12.1846111 C27.910904,11.655725 27.0557546,11.6566194 26.5277629,12.1846111 L24.137122,14.575252 L22.224748,12.662878 Z M9.09005629,27.7099549 C8.12873196,27.6565984 7.18269011,27.2626171 6.44783586,26.5277629 L1.18846065,21.2683876 C-0.395738569,19.6841884 -0.396568474,17.1166415 1.18846065,15.5316124 L6.44783586,10.2722371 C7.18246017,9.53761283 8.12853958,9.14346979 9.09004506,9.09005629 C9.14340156,8.12873196 9.53738289,7.18269011 10.2722371,6.44783586 L15.5316124,1.18846065 C17.1158116,-0.395738569 19.6833585,-0.396568474 21.2683876,1.18846065 L26.5277629,6.44783586 C27.2623869,7.1824599 27.6565299,8.12853886 27.7099436,9.09004397 C28.671268,9.14340156 29.6173099,9.53738289 30.3521641,10.2722371 L35.6115394,15.5316124 C37.1957386,17.1158116 37.1965685,19.6833585 35.6115394,21.2683876 L30.3521641,26.5277629 C29.6175401,27.2623869 28.6714611,27.6565299 27.709956,27.7099436 C27.6565984,28.671268 27.2626171,29.6173099 26.5277629,30.3521641 L21.2683876,35.6115394 C19.6841884,37.1957386 17.1166415,37.1965685 15.5316124,35.6115394 L10.2722371,30.3521641 C9.53761283,29.6175398 9.14346979,28.6714604 9.09005629,27.7099549 Z" id="Logo" fill-rule="nonzero"></path>
            <path d="M47.8784,4.0568 L52.1624,4.0568 C54.716,4.0568 56.2112,5.4512 56.2112,7.7864 C56.2112,10.2728 54.5144,11.6672 51.4064,11.6672 L49.592,11.6672 L49.592,15.6152 C49.592,15.7328 49.5248,15.8 49.4072,15.8 L47.8784,15.8 C47.7608,15.8 47.6936,15.7328 47.6936,15.6152 L47.6936,4.2416 C47.6936,4.124 47.7608,4.0568 47.8784,4.0568 Z M49.592,5.7536 L49.592,9.9872 L51.4064,9.9872 C53.288,9.9872 54.2792,9.1976 54.2792,7.7864 C54.2792,6.5096 53.4896,5.7536 52.1624,5.7536 L49.592,5.7536 Z M58.328,7.9208 L58.9664,7.736 C59.5376,7.568 60.1088,7.484 60.7976,7.484 C63.0656,7.484 64.46,8.66 64.46,10.6928 L64.46,15.6152 C64.46,15.7328 64.3928,15.8 64.2752,15.8 L63.4352,15.8 C63.3176,15.8 63.2504,15.7496 63.2168,15.6488 L63.0824,15.128 C62.9816,14.8928 62.8808,14.8928 62.6624,15.0944 C62.1416,15.6656 61.3856,15.9848 60.3608,15.9848 C58.496,15.9848 57.4544,15.0272 57.4544,13.448 C57.4544,11.8688 58.5296,10.8608 60.512,10.8608 L62.612,10.8608 L62.612,10.76 C62.612,9.7352 61.9568,9.1808 60.7136,9.1808 C60.2264,9.1808 59.8064,9.2312 59.4032,9.3488 L58.7984,9.5336 C58.6808,9.5672 58.5968,9.5168 58.5632,9.3992 L58.1936,8.156 C58.16,8.0384 58.2104,7.9544 58.328,7.9208 Z M62.612,12.3224 L60.512,12.3224 C59.6888,12.3224 59.3024,12.7088 59.3024,13.28 C59.3024,13.9352 59.756,14.3384 60.5624,14.3384 C61.8896,14.3384 62.612,13.6832 62.612,12.44 L62.612,12.3224 Z M71.2808,7.6688 L71.2808,8.9792 C71.2808,9.0968 71.2136,9.164 71.096,9.164 C69.2648,9.248 68.4584,10.5248 68.4584,13.616 L68.4584,15.6152 C68.4584,15.7328 68.3912,15.8 68.2736,15.8 L66.7784,15.8 C66.6608,15.8 66.5936,15.7328 66.5936,15.6152 L66.5936,7.8368 C66.5936,7.7192 66.6608,7.652 66.7784,7.652 L67.6184,7.652 C67.736,7.652 67.8032,7.7024 67.8368,7.8032 L68.1056,8.7608 C68.2064,8.9456 68.2904,8.9792 68.4416,8.8112 C69.1136,7.9376 69.8696,7.5176 71.096,7.484 C71.2136,7.484 71.2808,7.5512 71.2808,7.6688 Z M75.6656,7.652 L77.5472,7.652 C77.6648,7.652 77.732,7.7192 77.732,7.8368 L77.732,9.1304 C77.732,9.248 77.6648,9.3152 77.5472,9.3152 L75.6656,9.3152 L75.6656,13.3976 C75.6656,13.9688 75.9176,14.288 76.3208,14.288 C76.472,14.288 76.6232,14.2712 76.7576,14.2208 C76.8752,14.1704 76.9592,14.1872 77.0096,14.3048 L77.5472,15.4472 C77.5976,15.548 77.564,15.632 77.4632,15.6992 C77.1608,15.8672 76.724,15.9848 76.3208,15.9848 C74.7248,15.9848 73.8008,15.0272 73.8008,13.3976 L73.8008,9.3152 L72.9776,9.3152 C72.86,9.3152 72.7928,9.248 72.7928,9.1304 L72.7928,7.8368 C72.7928,7.7192 72.86,7.652 72.9776,7.652 L73.8008,7.652 L73.8008,5.72 C73.8008,5.6192 73.8512,5.552 73.952,5.5184 L75.4472,5.0144 C75.5816,4.9808 75.6656,5.0312 75.6656,5.1656 L75.6656,7.652 Z M80.8232,7.82 L80.9744,8.492 C81.0752,8.6936 81.176,8.6768 81.3608,8.5088 C82.016,7.7696 82.856,7.484 83.6792,7.484 C85.5944,7.484 86.7536,8.6768 86.7536,10.6592 L86.7536,15.6152 C86.7536,15.7328 86.6864,15.8 86.5688,15.8 L85.0736,15.8 C84.956,15.8 84.8888,15.7328 84.8888,15.6152 L84.8888,10.8608 C84.8888,9.8024 84.3344,9.164 83.4272,9.164 C82.184,9.164 81.4616,10.0712 81.4616,11.7008 L81.4616,15.6152 C81.4616,15.7328 81.3944,15.8 81.2768,15.8 L79.7816,15.8 C79.664,15.8 79.5968,15.7328 79.5968,15.6152 L79.5968,7.8368 C79.5968,7.7192 79.664,7.652 79.7816,7.652 L80.6216,7.652 C80.7392,7.652 80.8064,7.7024 80.8232,7.82 Z M94.9688,15.5648 L94.196,15.7664 C93.5912,15.9176 93.02,15.9848 92.4824,15.9848 C89.9456,15.9848 88.5176,14.3384 88.5176,11.7344 C88.5176,9.1136 89.9624,7.484 92.4152,7.484 C94.4312,7.484 95.6576,8.492 95.6576,10.1552 C95.6576,11.4488 94.868,12.188 93.188,12.44 L90.5504,12.8432 C90.7352,13.7336 91.4072,14.288 92.4656,14.288 C92.936,14.288 93.44,14.2376 93.7928,14.12 L94.532,13.9352 C94.6496,13.9016 94.7336,13.952 94.7672,14.0696 L95.1032,15.3296 C95.1368,15.4472 95.0864,15.5312 94.9688,15.5648 Z M90.3824,11.3984 L92.9024,10.9952 C93.4904,10.8944 93.8096,10.6256 93.8096,10.1888 C93.8096,9.5168 93.2888,9.164 92.3816,9.164 C91.2728,9.164 90.5168,9.8528 90.3824,11.3984 Z M102.1928,7.6688 L102.1928,8.9792 C102.1928,9.0968 102.1256,9.164 102.008,9.164 C100.1768,9.248 99.3704,10.5248 99.3704,13.616 L99.3704,15.6152 C99.3704,15.7328 99.3032,15.8 99.1856,15.8 L97.6904,15.8 C97.5728,15.8 97.5056,15.7328 97.5056,15.6152 L97.5056,7.8368 C97.5056,7.7192 97.5728,7.652 97.6904,7.652 L98.5304,7.652 C98.648,7.652 98.7152,7.7024 98.7488,7.8032 L99.0176,8.7608 C99.1184,8.9456 99.2024,8.9792 99.3536,8.8112 C100.0256,7.9376 100.7816,7.5176 102.008,7.484 C102.1256,7.484 102.1928,7.5512 102.1928,7.6688 Z M49.592,30.9032 L54.9176,30.9032 C55.0352,30.9032 55.1024,30.9704 55.1024,31.088 L55.1024,32.4152 C55.1024,32.5328 55.0352,32.6 54.9176,32.6 L47.8784,32.6 C47.7608,32.6 47.6936,32.5328 47.6936,32.4152 L47.6936,21.0416 C47.6936,20.924 47.7608,20.8568 47.8784,20.8568 L49.4072,20.8568 C49.5248,20.8568 49.592,20.924 49.592,21.0416 L49.592,30.9032 Z M60.4448,24.284 C62.8304,24.284 64.3088,25.9304 64.3088,28.5176 C64.3088,31.1384 62.8304,32.7848 60.4448,32.7848 C58.0424,32.7848 56.564,31.1384 56.564,28.5176 C56.564,25.9304 58.0424,24.284 60.4448,24.284 Z M60.4448,25.964 C59.168,25.964 58.412,26.9216 58.412,28.5176 C58.412,30.1304 59.168,31.088 60.4448,31.088 C61.688,31.088 62.4608,30.1304 62.4608,28.5176 C62.4608,26.9216 61.688,25.964 60.4448,25.964 Z M67.1648,34.3304 L67.82,34.5152 C68.1728,34.616 68.7776,34.7 69.2648,34.7 C70.424,34.7 71.4824,34.2464 71.7848,32.9024 C71.8352,32.1632 71.852,32.2136 71.8688,31.8608 C71.8688,31.7432 71.7848,31.6592 71.6336,31.8104 C71.0792,32.4152 70.2728,32.7848 69.3152,32.7848 C67.0976,32.7848 65.7536,31.1384 65.7536,28.568 C65.7536,25.8632 67.2152,24.284 69.668,24.284 C70.3568,24.284 71.0792,24.4016 71.7344,24.6704 L73.2296,25.292 C73.3304,25.3256 73.3808,25.3928 73.3808,25.4936 L73.3808,32.5328 C73.3808,35.0192 71.9192,36.38 69.3488,36.38 C68.7272,36.38 67.988,36.296 67.5176,36.1616 L66.6944,35.9264 C66.5768,35.8928 66.5264,35.8088 66.56,35.6912 L66.9464,34.448 C66.98,34.3472 67.064,34.2968 67.1648,34.3304 Z M71.516,26.4848 L71.012,26.2496 C70.6424,26.0648 70.1384,25.964 69.6512,25.964 C68.3576,25.964 67.6016,26.9048 67.6016,28.5176 C67.6016,30.0464 68.2904,31.088 69.5336,31.088 C70.8104,31.088 71.516,30.164 71.516,28.5512 L71.516,26.4848 Z M76.7912,20.42 C77.4968,20.42 77.9,20.84 77.9,21.5456 C77.9,22.268 77.4968,22.688 76.7912,22.688 C76.0856,22.688 75.6656,22.268 75.6656,21.5456 C75.6656,20.84 76.0856,20.42 76.7912,20.42 Z M77.9168,24.6368 L77.9168,32.4152 C77.9168,32.5328 77.8496,32.6 77.732,32.6 L76.2368,32.6 C76.1192,32.6 76.052,32.5328 76.052,32.4152 L76.052,26.1152 L75.2288,26.1152 C75.1112,26.1152 75.044,26.048 75.044,25.9304 L75.044,24.6368 C75.044,24.5192 75.1112,24.452 75.2288,24.452 L77.732,24.452 C77.8496,24.452 77.9168,24.5192 77.9168,24.6368 Z M83.7296,29.4248 L82.0328,28.988 C80.6384,28.6352 79.9832,27.9128 79.9832,26.7032 C79.9832,25.1912 81.1088,24.284 83.0576,24.284 C83.8136,24.284 84.5864,24.4016 85.1408,24.5528 L85.88,24.7376 C85.9976,24.7712 86.048,24.8552 86.0144,24.9728 L85.6616,26.2328 C85.628,26.3504 85.544,26.4008 85.4264,26.3672 L84.6872,26.1656 C84.2336,26.0312 83.5616,25.964 83.0576,25.964 C82.2848,25.964 81.8312,26.2496 81.8312,26.7032 C81.8312,27.0896 82.0664,27.3248 82.5872,27.476 L84.2672,27.9128 C85.7288,28.2824 86.384,29.0384 86.384,30.248 C86.384,31.8272 85.208,32.7848 83.2256,32.7848 C82.352,32.7848 81.4784,32.6672 80.6552,32.432 L80,32.2472 C79.8824,32.2136 79.832,32.1296 79.8656,32.012 L80.252,30.752 C80.2856,30.6512 80.3696,30.6008 80.4704,30.6344 L81.0752,30.8024 C81.7136,30.9872 82.604,31.088 83.2256,31.088 C84.0488,31.088 84.5192,30.7688 84.5192,30.248 C84.5192,29.8448 84.284,29.5928 83.7296,29.4248 Z M90.5,24.452 L92.3816,24.452 C92.4992,24.452 92.5664,24.5192 92.5664,24.6368 L92.5664,25.9304 C92.5664,26.048 92.4992,26.1152 92.3816,26.1152 L90.5,26.1152 L90.5,30.1976 C90.5,30.7688 90.752,31.088 91.1552,31.088 C91.3064,31.088 91.4576,31.0712 91.592,31.0208 C91.7096,30.9704 91.7936,30.9872 91.844,31.1048 L92.3816,32.2472 C92.432,32.348 92.3984,32.432 92.2976,32.4992 C91.9952,32.6672 91.5584,32.7848 91.1552,32.7848 C89.5592,32.7848 88.6352,31.8272 88.6352,30.1976 L88.6352,26.1152 L87.812,26.1152 C87.6944,26.1152 87.6272,26.048 87.6272,25.9304 L87.6272,24.6368 C87.6272,24.5192 87.6944,24.452 87.812,24.452 L88.6352,24.452 L88.6352,22.52 C88.6352,22.4192 88.6856,22.352 88.7864,22.3184 L90.2816,21.8144 C90.416,21.7808 90.5,21.8312 90.5,21.9656 L90.5,24.452 Z M95.708,20.42 C96.4136,20.42 96.8168,20.84 96.8168,21.5456 C96.8168,22.268 96.4136,22.688 95.708,22.688 C95.0024,22.688 94.5824,22.268 94.5824,21.5456 C94.5824,20.84 95.0024,20.42 95.708,20.42 Z M96.8336,24.6368 L96.8336,32.4152 C96.8336,32.5328 96.7664,32.6 96.6488,32.6 L95.1536,32.6 C95.036,32.6 94.9688,32.5328 94.9688,32.4152 L94.9688,26.1152 L94.1456,26.1152 C94.028,26.1152 93.9608,26.048 93.9608,25.9304 L93.9608,24.6368 C93.9608,24.5192 94.028,24.452 94.1456,24.452 L96.6488,24.452 C96.7664,24.452 96.8336,24.5192 96.8336,24.6368 Z M104.9648,32.348 L104.2256,32.5664 C103.7216,32.7008 103.184,32.7848 102.6632,32.7848 C100.0928,32.7848 98.6816,31.1384 98.6816,28.5176 C98.6816,25.9136 100.076,24.284 102.7136,24.284 C103.1504,24.284 103.6376,24.3344 104.1584,24.4856 L104.8808,24.6872 C104.9984,24.7208 105.0488,24.8048 105.0152,24.9224 L104.6288,26.1824 C104.5952,26.2832 104.5112,26.3336 104.4104,26.3 L103.8392,26.1488 C103.4192,26.0144 103.016,25.964 102.7136,25.964 C101.2184,25.964 100.5296,26.9216 100.5296,28.5008 C100.5296,30.1304 101.252,31.088 102.68,31.088 C103.0328,31.088 103.5032,31.0208 103.9232,30.9032 L104.4776,30.7352 C104.5952,30.7016 104.6792,30.752 104.7128,30.8528 L105.0992,32.1128 C105.1328,32.2304 105.0824,32.3144 104.9648,32.348 Z" id="Partner-Logistic"></path>
        </g>
    </g>
</svg>